<svg xmlns="http://www.w3.org/2000/svg" xmlns:xlink="http://www.w3.org/1999/xlink" aria-hidden="true" role="img" class="iconify iconify--logos" width="31.88" height="32" preserveAspectRatio="xMidYMid meet" viewBox="0 0 256 257"><defs><linearGradient id="IconifyId1813088fe1fbc01fb466" x1="-.828%" x2="57.636%" y1="7.652%" y2="78.411%"><stop offset="0%" stop-color="#41D1FF"></stop><stop offset="100%" stop-color="#BD34FE"></stop></linearGradient><linearGradient id="IconifyId1813088fe1fbc01fb467" x1="43.376%" x2="50.316%" y1="2.242%" y2="89.03%"><stop offset="0%" stop-color="#FFEA83"></stop><stop offset="8.333%" stop-color="#FFDD35"></stop><stop offset="100%" stop-color="#FFA800"></stop></linearGradient></defs><path fill="url(#IconifyId1813088fe1fbc01fb466)" d="M255.153 37.938L134.897 252.976c-2.483 4.44-8.862 4.466-11.382.048L.875 37.958c-2.746-4.814 1.371-10.646 6.827-9.67l120.385 22.656l88.926-21.358c5.385-.925 9.859 4.211 7.069 9.305z"></path><path fill="url(#IconifyId1813088fe1fbc01fb467)" d="M185.432.063L96.44 17.501a8 8 0 0 0-5.974 5.846l-22.6 112.48a8 8 0 0 0 8.376 9.463l30.432-1.713a8 8 0 0 1 8.558 7.063l1.585 17.35a8 8 0 0 1-7.168 8.687l-28.583 3.2a8 8 0 0 0-7.17 8.687l3.733 40.8a8 8 0 0 0 8.976 7.232l116.68-10.48a8 8 0 0 0 7.168-8.687l-14.19-155.168a8 8 0 0 0-8.976-7.232l-30.432 2.736a8 8 0 0 1-7.168-8.687l3.2-35.2a8 8 0 0 1 8.976-7.232l5.76.512A8 8 0 0 0 185.432.063z"></path></svg>
